<svg width="210" height="244" viewBox="0 0 210 244" fill="none" xmlns="http://www.w3.org/2000/svg">
<rect width="209.976" height="72.9084" fill="#0D0E2D"/>
<line x1="27.7749" y1="11.6653" x2="27.7749" y2="60.2709" stroke="#F5F5F5" stroke-width="5"/>
<line x1="50.1331" y1="11.6653" x2="50.1331" y2="60.2709" stroke="#F5F5F5" stroke-width="5"/>
<line x1="72.4922" y1="11.6653" x2="72.4922" y2="60.2709" stroke="#F5F5F5" stroke-width="5"/>
<circle cx="118.112" cy="36.4542" r="13.1235" fill="#2C96F9"/>
<circle cx="147.246" cy="36.4542" r="13.1235" fill="#2C96F9"/>
<circle cx="176.379" cy="36.4542" r="13.1235" fill="#2C96F9"/>
<rect y="85.5458" width="209.976" height="72.9084" fill="#0D0E2D"/>
<line x1="27.7749" y1="97.2111" x2="27.7749" y2="145.817" stroke="#F5F5F5" stroke-width="5"/>
<line x1="50.1331" y1="97.2111" x2="50.1331" y2="145.817" stroke="#F5F5F5" stroke-width="5"/>
<line x1="72.4922" y1="97.2111" x2="72.4922" y2="145.817" stroke="#F5F5F5" stroke-width="5"/>
<circle cx="118.112" cy="122" r="13.1235" fill="#2C96F9"/>
<circle cx="147.246" cy="122" r="13.1235" fill="#2C96F9"/>
<circle cx="176.379" cy="122" r="13.1235" fill="#2C96F9"/>
<rect y="171.092" width="209.976" height="72.9084" fill="#0D0E2D"/>
<line x1="27.7749" y1="182.757" x2="27.7749" y2="231.363" stroke="#F5F5F5" stroke-width="5"/>
<line x1="50.1331" y1="182.757" x2="50.1331" y2="231.363" stroke="#F5F5F5" stroke-width="5"/>
<line x1="72.4922" y1="182.757" x2="72.4922" y2="231.363" stroke="#F5F5F5" stroke-width="5"/>
<circle cx="118.112" cy="207.546" r="13.1235" fill="#2C96F9"/>
<circle cx="147.246" cy="207.546" r="13.1235" fill="#2C96F9"/>
<circle cx="176.379" cy="207.546" r="13.1235" fill="#2C96F9"/>
</svg>
