<svg width="137" height="109" viewBox="0 0 137 109" fill="none" xmlns="http://www.w3.org/2000/svg">
<path d="M67.1871 50.1744H56.8322V32.8607H69.1165C75.7953 32.8607 79.5856 35.8356 79.5856 41.2155C79.5856 46.9602 75.173 50.1744 67.1757 50.1744H67.1871ZM69.0366 57.0475H56.8379V76.1279H69.5732C77.9016 76.1279 82.3142 72.7939 82.3142 66.525C82.3142 60.256 77.776 57.0475 69.0366 57.0475V57.0475ZM137 51.0293V57.9707C130.561 58.5862 126.628 63.3506 124.293 70.8962C121.97 78.4132 121.65 87.6343 121.896 94.7524C122.153 102.161 116.37 109 108.555 109H28.456C20.6356 109 14.8531 102.161 15.1157 94.7524C15.3611 87.6343 15.0415 78.4132 12.7182 70.8962C10.3777 63.3506 6.439 58.5862 0 57.9707V51.0293C6.439 50.4138 10.3835 45.6494 12.7125 38.1038C15.0415 30.5868 15.3611 21.3657 15.11 14.2476C14.8531 6.83886 20.6356 0 28.456 0H108.555C116.376 0 122.153 6.83886 121.896 14.2476C121.65 21.3657 121.97 30.5868 124.293 38.1038C126.628 45.6494 130.561 50.4138 137 51.0293ZM91.75 67.0835C91.75 59.367 86.31 53.7876 78.2327 52.9043V52.5794C84.1694 51.6163 88.8274 46.111 88.8274 39.9674C88.8274 31.208 81.9032 25.5032 71.3485 25.5032H47.6018V83.474H71.4683C84.1294 83.474 91.75 77.2848 91.75 67.0835V67.0835Z" fill="#57C6F4"/>
</svg>
