<svg width="61" height="67" viewBox="0 0 61 67" fill="none" xmlns="http://www.w3.org/2000/svg">
<rect width="60.97" height="67" fill="#639EC9" fill-opacity="0.37"/>
<rect width="60.97" height="6.7" fill="#57C6F4"/>
<rect x="6.47668" y="13.6233" width="48.0167" height="12.73" fill="#6B9AAD"/>
<rect x="6.47668" y="28.5867" width="8.93333" height="12.73" fill="#3FA6D1"/>
<rect x="6.47668" y="43.55" width="8.93333" height="1.56333" fill="#3FA6D1"/>
<rect x="25.9066" y="43.55" width="8.93333" height="1.56333" fill="#3FA6D1"/>
<rect x="45.3367" y="43.55" width="8.93333" height="1.56333" fill="#3FA6D1"/>
<rect x="25.9066" y="49.58" width="8.93333" height="1.56333" fill="#3FA6D1"/>
<rect x="25.9066" y="56.2799" width="8.93333" height="1.56333" fill="#3FA6D1"/>
<rect x="45.3367" y="56.5033" width="8.93333" height="1.56333" fill="#3FA6D1"/>
<rect x="45.3367" y="49.58" width="8.93333" height="1.56333" fill="#3FA6D1"/>
<rect x="6.47668" y="49.58" width="8.93333" height="1.56333" fill="#3FA6D1"/>
<rect x="6.47668" y="55.61" width="8.93333" height="1.56333" fill="#3FA6D1"/>
<rect x="25.9066" y="28.5867" width="8.93333" height="12.73" fill="#319AC6"/>
<rect x="45.3367" y="28.5867" width="8.93333" height="12.73" fill="#225165"/>
<rect width="6.92333" height="6.7" fill="#0DB1F4"/>
</svg>
