<svg width="98" height="111" viewBox="0 0 98 111" fill="none" xmlns="http://www.w3.org/2000/svg">
<path d="M90.3633 22.6625L55.3196 1.85925C53.2291 0.61975 50.8981 0 48.5625 0C46.2269 0 43.8959 0.61975 41.8008 1.86388L6.75712 22.6625C2.57613 25.1461 0 29.7341 0 34.7014V76.3032C0 81.2659 2.57612 85.8585 6.76175 88.3421L41.8054 109.141C43.8959 110.38 46.2269 111 48.5625 111C50.8981 111 53.2291 110.38 55.3196 109.141L90.3633 88.3421C94.5443 85.8585 97.125 81.2705 97.125 76.3032V34.7014C97.125 29.7341 94.5489 25.1461 90.3633 22.6625ZM63.2238 87.6252L63.2839 90.613C63.2885 90.9737 63.0526 91.3854 62.7705 91.5288L60.9991 92.5462C60.717 92.6896 60.4857 92.5139 60.4811 92.1531L60.4487 89.2163C58.9317 89.8453 57.3962 89.9979 56.4157 89.6048C56.2307 89.5308 56.1521 89.2579 56.2261 88.948L56.869 86.247C56.9199 86.0343 57.0355 85.8215 57.1881 85.6874C57.2436 85.6365 57.2991 85.5949 57.3546 85.5671C57.4564 85.5162 57.5535 85.5024 57.6414 85.5394C58.7005 85.8955 60.051 85.729 61.3506 85.0722C63.0018 84.2351 64.1071 82.5516 64.0886 80.8774C64.0747 79.3604 63.2515 78.7267 61.2535 78.7129C58.7098 78.7175 56.3325 78.218 56.2955 74.4717C56.2631 71.3869 57.868 68.1771 60.4071 66.1468L60.3747 63.1312C60.3701 62.7612 60.5968 62.3542 60.8881 62.2062L62.5994 61.1147C62.8815 60.9714 63.1128 61.1471 63.1174 61.5171L63.1451 64.5373C64.4078 64.0331 65.5085 63.899 66.5029 64.1302C66.7203 64.1857 66.8128 64.4818 66.7249 64.8286L66.0589 67.5019C66.008 67.7054 65.8924 67.9089 65.7583 68.0384C65.7028 68.0939 65.6426 68.1355 65.5825 68.1679C65.4946 68.2141 65.4068 68.228 65.3189 68.2095C64.8656 68.1078 63.7834 67.8719 62.086 68.7321C60.3054 69.634 59.681 71.1834 59.6949 72.3304C59.7087 73.704 60.4118 74.1202 62.8445 74.1619C66.082 74.2174 67.4834 75.6326 67.5157 78.8932C67.5481 82.0799 65.8415 85.5209 63.2238 87.6252ZM81.5989 82.5979C81.5989 82.8754 81.5619 83.1344 81.3306 83.2685L72.4691 88.652C72.2379 88.7861 72.0529 88.6705 72.0529 88.393V86.1083C72.0529 85.8308 72.224 85.6781 72.4553 85.544L81.1826 80.3224C81.4139 80.1883 81.5989 80.3039 81.5989 80.5814V82.5979ZM87.6854 31.4361L54.5334 51.911C50.3986 54.3299 47.3507 57.0401 47.3507 62.0259V102.878C47.3507 105.862 48.5532 107.795 50.4032 108.354C49.7974 108.461 49.1823 108.535 48.5625 108.535C46.62 108.535 44.7099 108.008 43.0264 107.009L7.98275 86.21C4.55563 84.175 2.42813 80.3779 2.42813 76.3032V34.7014C2.42813 30.6267 4.55563 26.8296 7.98275 24.7946L43.0264 3.99137C44.7053 2.99237 46.62 2.46513 48.5625 2.46513C50.5004 2.46513 52.4151 2.99237 54.0986 3.99137L89.1423 24.7946C92.0283 26.5105 93.98 29.4798 94.5257 32.8051C93.3602 30.3261 90.7425 29.6509 87.6854 31.4361Z" fill="#57C6F4"/>
</svg>
