<svg width="72" height="111" viewBox="0 0 72 111" fill="none" xmlns="http://www.w3.org/2000/svg">
<path d="M34.9397 31.0035C31.961 33.3184 29.9252 35.0516 26.9953 37.3666C26.283 37.936 26.2386 38.0845 25.6195 35.9181C24.915 33.4546 24.3931 31.8701 23.4015 30.4217C20.4189 25.9402 17.5331 27.2401 14.842 32.588C11.6246 38.9511 9.96932 48.3595 10.0179 60.0706C10.0624 71.6455 12.6646 81.1902 16.4001 82.7871C19.6173 84.0869 22.3089 80.6206 24.4414 73.2549C24.8666 71.6455 25.2431 69.9123 25.7166 67.8821H16.5903C15.5988 67.8821 15.36 66.0003 15.6919 63.5492C16.307 59.0679 17.4403 51.5411 18.1038 47.7777C18.2052 47.0805 18.371 46.4896 18.5812 46.0781C18.7915 45.6666 19.0362 45.4527 19.2858 45.4627H36.4977C36.4048 49.3747 36.4048 53.2742 36.2145 57.1861C35.7245 67.485 34.391 77.2374 32.3375 85.5353C28.934 99.2766 24.4863 107.819 18.8606 110.121C14.2268 112.003 9.92072 109.255 6.14082 100.589C2.64012 92.4802 0.65302 81.772 0.13492 68.4639C-0.48018 52.6924 1.03342 38.5178 4.15372 26.0764C7.51272 12.6322 11.9564 4.09035 17.3958 1.06975C21.8392 -1.40616 26.097 0.20318 29.9252 8.13846C32.4346 13.2141 34.2274 20.1466 35.4132 28.54C35.6964 29.8398 35.5065 30.5702 34.9397 31.0158V31.0035ZM50.5936 111C46.2875 110.703 42.3621 106.94 39.0515 98.2614C36.2973 91.1617 34.4821 81.2391 33.9442 70.3456C33.0942 54.0047 34.5594 39.5329 37.7767 26.6582C41.229 12.7684 45.3892 5.53876 51.0188 2.51815C55.8429 -0.0815496 60.3834 1.3421 64.4953 9.88397C68.2307 17.6831 70.5497 28.2552 71.1649 42.1327C71.9661 61.6675 70.125 77.5753 65.7256 91.1804C62.6054 100.874 58.7728 106.94 54.3739 109.688C53.0987 110.431 51.8239 110.554 50.5936 111ZM61.8447 52.5686C61.8003 50.6745 61.8003 49.2261 61.707 47.7777C60.857 33.4546 56.5509 25.3708 52.0587 28.54C47.6594 31.5729 44.8228 40.1147 43.7824 53.7075C42.9328 64.9976 44.7295 76.424 48.133 81.0663C50.7352 84.5326 53.3335 84.0869 55.8429 80.1998C59.5783 74.2576 61.6099 64.9976 61.8486 52.5563L61.8447 52.5686Z" fill="#57C6F4"/>
</svg>
