<svg width="47" height="104" viewBox="0 0 47 104" fill="none" xmlns="http://www.w3.org/2000/svg">
<path d="M46.1375 41.405C40.6273 17.225 27.6016 9.27767 26.2022 6.24C24.9816 4.53267 23.8917 2.106 22.9981 0C22.8411 2.145 22.7583 2.96833 20.7181 5.13067C17.5663 7.58333 1.3713 21.086 0.0547751 48.5507C-1.17456 74.1693 18.6692 89.4357 21.3633 91.3813L21.6685 91.598C22.2295 95.7223 22.7091 99.8571 23.1071 104H25.2039C25.7009 99.528 26.442 95.0907 27.4272 90.6967C29.245 89.414 30.0602 88.6903 31.1326 87.6937C36.2111 83.0236 40.2471 77.3461 42.9797 71.0283C45.7123 64.7104 47.0807 57.8928 46.9963 51.0163C47.0399 47.489 46.5473 43.8143 46.1375 41.405V41.405ZM22.876 76.9167C22.876 76.9167 22.876 40.989 24.0748 40.9933C25.0034 40.9933 26.2109 87.3383 26.2109 87.3383C24.55 87.1433 22.876 79.7117 22.876 76.9167Z" fill="#57C6F4"/>
</svg>
