<svg width="95" height="107" viewBox="0 0 95 107" fill="none" xmlns="http://www.w3.org/2000/svg">
<path d="M47.4933 107C46.0605 107 44.6321 106.626 43.3778 105.899L30.2725 98.1548C28.3174 97.0625 29.2727 96.6746 29.9154 96.4472C32.5267 95.5422 33.0534 95.3327 35.8432 93.7544C36.1333 93.5895 36.5172 93.6519 36.8162 93.8302L46.8863 99.7999C47.2523 100 47.7656 100 48.1004 99.7999L87.3582 77.1696C87.7242 76.9601 87.9563 76.541 87.9563 76.1085V30.8569C87.9563 30.4155 87.7198 30.0009 87.3448 29.778L48.1048 7.16558C47.7433 6.95604 47.2612 6.95604 46.8952 7.16558L7.6641 29.7825C7.28469 30.0009 7.04365 30.4289 7.04365 30.8569V76.1085C7.04365 76.541 7.28469 76.9511 7.6641 77.1562L18.417 83.3622C24.251 86.2779 27.8264 82.845 27.8264 79.3943V34.7178C27.8264 34.0847 28.3353 33.5898 28.9691 33.5898H33.9461C34.5666 33.5898 35.0843 34.0892 35.0843 34.7178V79.3943C35.0843 87.174 30.8439 91.6323 23.461 91.6323C21.1934 91.6323 19.4035 91.6323 14.4176 89.1758L4.11549 83.2596C1.57121 81.7928 0 79.0465 0 76.1085V30.8569C0 27.9189 1.57567 25.1726 4.11549 23.7103L43.3733 1.05327C45.8596 -0.35109 49.1583 -0.35109 51.6222 1.05327L90.8756 23.7103C93.4199 25.1771 95 27.9189 95 30.8569V76.1085C95 79.0465 93.4199 81.7839 90.8756 83.2596L51.6222 105.899C50.3724 106.626 48.9485 107 47.4933 107ZM79.1897 62.3859C79.1897 53.9152 73.4584 51.6593 61.3931 50.0677C49.2029 48.4582 47.962 47.6245 47.962 44.7757C47.962 42.4217 49.0109 39.2786 58.0409 39.2786C66.1068 39.2786 69.0795 41.0129 70.3026 46.4431C70.4097 46.9558 70.8784 47.3303 71.4051 47.3303H76.4981C76.8151 47.3303 77.1141 47.1921 77.3284 46.9692C77.5426 46.7284 77.6587 46.4208 77.6275 46.0953C76.8374 36.7419 70.615 32.3817 58.0409 32.3817C46.8461 32.3817 40.1684 37.0985 40.1684 45.012C40.1684 53.5942 46.8104 55.966 57.5544 57.0271C70.4097 58.2843 71.4051 60.1612 71.4051 62.6846C71.4051 67.0671 67.8833 68.9351 59.6121 68.9351C49.2252 68.9351 46.9398 66.3315 46.1721 61.1688C46.0828 60.616 45.6096 60.2103 45.0428 60.2103H39.9676C39.3382 60.2103 38.8338 60.7096 38.8338 61.3382C38.8338 67.9454 42.4315 75.8187 59.6121 75.8187C72.0568 75.8232 79.1897 70.9325 79.1897 62.3859Z" fill="#57C6F4"/>
</svg>
