<svg width="139" height="143" viewBox="0 0 139 143" fill="none" xmlns="http://www.w3.org/2000/svg">
<path d="M137.9 87.7234C137.818 87.4737 137.705 87.2353 137.564 87.0137C136.736 85.4455 134.723 84.9772 131.562 85.6308C121.711 87.6632 117.896 86.4125 116.514 85.517C124.51 73.3131 131.082 58.5734 134.633 44.8234C136.25 38.5629 139.389 23.828 135.362 16.6309C135.104 16.1383 134.803 15.6697 134.462 15.2307C126.78 5.41375 115.504 0.147775 101.855 0.00298753C92.9489 -0.0911541 85.3473 2.06517 83.2881 2.85941C82.2681 2.66905 81.2431 2.50692 80.2142 2.37321C77.6348 1.90614 75.0214 1.65146 72.4004 1.61174C65.3565 1.5021 59.2694 3.18593 54.2287 6.62031C49.1206 4.70709 25.6954 -3.18115 11.1982 7.08983C3.10142 12.8259 -0.636245 23.0784 0.0882879 37.5631C0.331984 42.437 3.10857 57.4282 7.49032 71.7854C10.23 80.7616 13.0834 87.8842 16.031 93.1282C19.326 99.0519 22.7395 102.622 26.2454 103.791C28.9111 104.679 32.9944 104.649 37.3165 99.4535C42.0904 93.7127 46.7921 88.5748 48.9031 86.3041C51.4956 87.7073 54.3038 88.464 57.1852 88.5516C57.1857 88.5597 57.1865 88.5679 57.1876 88.576C56.6859 89.1738 56.1948 89.7804 55.7147 90.3957C53.6954 92.9589 53.2753 93.4922 46.776 94.8305C44.9277 95.2118 40.0169 96.2241 39.9454 99.6657C39.9305 100.395 40.1414 101.041 40.4929 101.613C41.8449 104.134 45.9841 105.246 46.5406 105.385C54.492 107.372 61.4627 105.933 66.6286 101.341C66.5273 114.634 67.0903 127.661 68.6866 131.654C70.0046 134.948 73.2256 143.001 83.3989 143C84.8915 143 86.5348 142.827 88.3419 142.439C98.9591 140.163 103.57 135.47 105.353 125.125C106.249 119.937 107.746 107.993 108.563 100.689C108.664 100.27 108.776 99.9695 108.903 99.8772C108.907 99.8742 109.318 99.5965 111.448 100.06C111.535 100.079 111.624 100.092 111.712 100.101L113.225 100.233L113.314 100.239C118.359 100.468 124.703 99.3898 128.396 97.6726C132.232 95.8922 139.155 91.5218 137.9 87.7234ZM11.6522 70.7642C7.2222 56.2508 4.6339 41.6571 4.42893 37.5649C3.78186 24.627 6.91415 15.621 13.7376 10.7959C24.6813 3.05842 42.5748 7.57365 50.1311 10.0213C50.1121 10.0404 50.0918 10.0577 50.0727 10.0773C38.0143 22.2562 38.3003 43.0627 38.3301 44.3348C38.3289 44.8251 38.3694 45.5199 38.4266 46.4756C38.6339 49.9749 39.02 56.488 37.9886 63.8644C37.03 70.7189 39.1428 77.428 43.7849 82.2709C44.2652 82.772 44.7668 83.2427 45.2852 83.6854C43.2189 85.8983 38.7287 90.7913 33.9495 96.5411C30.567 100.608 28.2313 99.8283 27.4633 99.5721C25.1282 98.7933 22.6191 96.074 20.0862 91.6934C17.2286 86.6944 14.3454 79.5878 11.6522 70.7642ZM47.4451 101.075C46.4256 100.82 45.4961 100.4 44.8699 100.019C45.3996 99.7842 46.2844 99.4815 47.7496 99.1795C55.3959 97.6059 56.5769 96.4946 59.1556 93.2199C59.7467 92.4692 60.4164 91.6189 61.3441 90.5828C61.5437 90.359 61.6934 90.0954 61.7833 89.8094C62.8009 88.9079 63.4063 89.1546 64.3865 89.5609C65.316 89.9458 66.2204 91.1101 66.5881 92.3923C66.7614 92.9977 66.9569 94.147 66.3187 95.0402C60.9306 102.582 53.0817 102.485 47.4451 101.075ZM59.9219 77.313L59.6091 78.1531C58.8166 80.2778 58.0796 82.253 57.6225 84.1293C53.646 84.1168 49.7766 82.4181 46.835 79.3483C43.0937 75.445 41.3944 70.0152 42.1726 64.4501C43.2618 56.6572 42.8596 49.8713 42.6433 46.226C42.6135 45.7153 42.5867 45.2684 42.5706 44.9157C44.3325 43.354 52.4966 38.98 58.3179 40.3135C60.9747 40.9224 62.5936 42.7308 63.2663 45.8428C66.7495 61.953 63.7275 68.6674 61.2988 74.0633C60.7983 75.1751 60.3258 76.2256 59.9219 77.313ZM103.797 104.557C103.697 105.611 103.584 106.798 103.429 108.108L102.559 110.72C102.49 110.927 102.453 111.143 102.451 111.361C102.416 114.19 102.129 115.228 101.765 116.541C101.388 117.906 100.959 119.455 100.697 122.842C100.041 131.269 95.4639 136.109 86.294 138.074C77.2642 140.011 75.6626 135.114 74.2511 130.795C74.1065 130.342 73.9538 129.892 73.7929 129.445C72.5094 125.954 72.6542 121.032 72.855 114.221C72.9533 110.877 72.7067 102.892 70.8876 98.4537C70.9138 96.7067 70.9507 94.9329 71.0008 93.1401C71.0068 92.913 70.9761 92.6864 70.9096 92.4692C70.852 92.0504 70.7646 91.6362 70.6481 91.2298C69.9176 88.6779 68.1378 86.543 66.0023 85.6582C65.1539 85.3067 63.5964 84.662 61.7255 85.1404C62.1247 83.4959 62.8164 81.6399 63.5666 79.6296L63.8818 78.7835C64.2363 77.8301 64.6802 76.8428 65.1509 75.7972C67.6921 70.151 71.1724 62.4189 67.3948 44.9497C65.9803 38.4068 61.2553 35.212 54.0934 35.9538C49.7993 36.3983 45.8715 38.131 43.9118 39.1242C43.5189 39.3233 43.13 39.5301 42.7452 39.7445C43.2922 33.1522 45.3585 20.8321 53.0871 13.0374C53.6612 12.459 54.2643 11.9101 54.8942 11.3929C55.207 11.3319 55.5018 11.2007 55.7564 11.0092C60.2394 7.6094 65.8528 5.94106 72.4516 6.04891C74.8892 6.08883 77.2284 6.2509 79.4479 6.53153C91.0011 8.64317 98.7762 15.1521 103.495 20.7285C108.347 26.4622 110.974 32.237 112.023 35.352C104.139 34.55 98.775 36.1075 96.0562 39.9935C90.1419 48.4478 99.2916 64.8571 103.689 72.7429C104.496 74.1884 105.192 75.4373 105.411 75.9682C106.843 79.4389 108.697 81.7555 110.051 83.4471C110.465 83.9654 110.868 84.4683 111.174 84.9069C108.786 85.595 104.496 87.1859 104.886 95.1373C104.813 96.0686 104.634 97.8001 104.39 99.9922C104.115 101.23 103.971 102.735 103.797 104.557ZM109.103 94.8984C108.862 89.9434 110.707 89.4257 112.658 88.8775C112.929 88.8035 113.197 88.7228 113.463 88.6356C113.715 88.8587 113.982 89.0638 114.262 89.2493C117.661 91.4926 123.69 91.7595 132.178 90.0501C130.977 91.1041 129.086 92.4298 126.498 93.6316C124.056 94.7655 119.969 95.6158 116.087 95.7981C111.799 95.9983 109.617 95.3173 109.103 94.8984ZM112.496 39.6575C112.461 41.7477 112.173 43.6448 111.868 45.6259C111.541 47.7566 111.201 49.96 111.115 52.6341C111.031 55.2367 111.356 57.9424 111.671 60.5593C112.306 65.8444 112.958 71.2861 110.434 76.6552C110.015 75.9127 109.642 75.1454 109.316 74.3576C109.002 73.5973 108.322 72.3759 107.379 70.6861C103.711 64.1075 95.1207 48.7022 99.5186 42.4162C101.78 39.1826 107.508 39.0432 112.496 39.6575ZM113.857 81.4474C113.689 81.2332 113.52 81.0199 113.349 80.8075L113.138 80.543C117.464 73.3959 116.618 66.3252 115.865 60.0552C115.556 57.4824 115.264 55.0526 115.338 52.7706C115.415 50.3509 115.735 48.2762 116.044 46.2694C116.425 43.7967 116.811 41.2388 116.705 38.2227C116.785 37.9063 116.817 37.5327 116.775 37.0894C116.503 34.1967 113.201 25.5422 106.471 17.707C102.85 13.4927 97.5952 8.78617 90.4494 5.55496C93.5781 4.9198 97.7948 4.34244 102.511 4.44731C114.735 4.71901 124.406 9.29441 131.256 18.0466C131.401 18.2366 131.534 18.4361 131.653 18.6436C135.962 26.7207 130.007 56.0328 113.857 81.4474ZM61.3251 45.0051C61.1761 46.074 59.4845 47.5225 57.6243 47.5225C57.4631 47.5226 57.302 47.5114 57.1423 47.4891C56.0263 47.3342 54.899 46.6311 54.128 45.6087C53.8551 45.2482 53.4112 44.5481 53.4994 43.9141C53.5322 43.6752 53.6549 43.3272 54.0505 43.0275C54.7548 42.4948 56.1467 42.297 57.6827 42.5109C59.5673 42.7737 61.5115 43.6657 61.3251 45.0051ZM108.578 42.5538C108.644 43.0257 108.286 43.7515 107.665 44.4021C107.258 44.8293 106.402 45.5705 105.235 45.732C105.087 45.7526 104.938 45.7629 104.788 45.763C103.039 45.763 101.562 44.3664 101.447 43.5483C101.304 42.4966 103.021 41.6976 104.79 41.4509C106.56 41.2043 108.432 41.5034 108.578 42.5538Z" fill="#57C6F4"/>
</svg>
