<svg width="151" height="135" viewBox="0 0 151 135" fill="none" xmlns="http://www.w3.org/2000/svg">
<path d="M89.5304 67.2579C89.5304 70.9879 88.0491 74.5653 85.4122 77.2034C82.7752 79.8415 79.1986 81.3244 75.4685 81.3261C71.7374 81.3261 68.1591 79.8439 65.5208 77.2056C62.8826 74.5673 61.4004 70.989 61.4004 67.2579C61.4004 63.5279 62.8817 59.9506 65.5186 57.3124C68.1556 54.6743 71.7322 53.1914 75.4622 53.1897C79.1934 53.1897 82.7716 54.6719 85.4099 57.3102C88.0482 59.9485 89.5304 63.5268 89.5304 67.2579ZM106.191 0C97.7222 0 86.6425 6.04 75.4371 16.4968C64.2379 6.09663 53.152 0.125833 44.6897 0.125833C42.1101 0.125833 39.7633 0.710958 37.7311 1.87492C29.0801 6.86421 27.1423 22.4109 31.6093 41.9214C12.4575 47.8355 0 57.2919 0 67.2579C0 77.2617 12.5204 86.7432 31.7289 92.6133C27.2995 112.199 29.2751 127.771 37.945 132.754C39.9584 133.931 42.2863 134.484 44.8785 134.484C53.3407 134.484 64.4267 128.444 75.6321 117.975C86.8313 128.381 97.9172 134.352 106.38 134.352C108.959 134.352 111.306 133.786 113.338 132.622C121.983 127.639 123.927 112.092 119.46 92.5756C138.542 86.7117 151 77.2365 151 67.2579C151 57.2542 138.48 47.7726 119.271 41.8899C123.7 22.3228 121.725 6.73837 113.055 1.74908C111.054 0.591417 108.726 0.00629167 106.184 0H106.191ZM106.159 6.85792V6.89567C107.575 6.89567 108.714 7.1725 109.67 7.69471C113.86 10.0981 115.679 19.2399 114.263 30.999C113.923 33.8932 113.37 36.9447 112.69 40.059C106.65 38.5742 100.069 37.4354 93.1418 36.6993C88.9893 31.0053 84.6795 25.8336 80.3383 21.3036C90.3546 11.9919 99.7607 6.88308 106.166 6.86421L106.159 6.85792ZM44.6897 6.98375C51.0569 6.98375 60.507 12.0674 70.5485 21.3287C66.2324 25.8587 61.9289 30.999 57.8393 36.693C50.8744 37.4291 44.287 38.5679 38.2533 40.0779C37.5487 36.995 37.0265 34.0127 36.6553 31.1437C35.2082 19.3909 36.995 10.2554 41.1475 7.82054C42.3429 7.25429 43.6642 7.0215 44.6897 6.99004V6.98375ZM75.4056 26.1733C78.2683 29.1178 81.131 32.4147 83.9623 36.0135C81.194 35.8877 78.3627 35.7996 75.5 35.7996C72.6058 35.7996 69.7431 35.8625 66.9433 36.0135C69.7117 32.4147 72.5744 29.1178 75.4056 26.167V26.1733ZM75.5 42.6953C80.1558 42.6953 84.7928 42.9092 89.3542 43.2804C91.9087 46.9421 94.4002 50.8493 96.7973 54.9829C99.1378 59.0095 101.264 63.0991 103.202 67.2265C101.264 71.3475 99.1378 75.4685 96.8288 79.4952C94.4379 83.6477 91.9653 87.5989 89.4046 91.2606C84.8242 91.657 80.181 91.8772 75.5 91.8772C70.8442 91.8772 66.2072 91.657 61.6458 91.2921C59.0913 87.6303 56.5998 83.7169 54.2027 79.5896C51.8622 75.5629 49.7356 71.4733 47.7978 67.346C49.7042 63.2124 51.8622 59.085 54.1712 55.0521C56.5621 50.8996 59.0347 46.961 61.5954 43.2992C66.1757 42.8966 70.819 42.6827 75.5 42.6827V42.6953ZM52.6298 44.2933C51.1198 46.6653 49.6098 49.0939 48.2005 51.5917C46.7848 54.0454 45.4636 56.5117 44.2052 58.9781C42.538 54.8507 41.1223 50.736 39.9521 46.7282C43.9788 45.7845 48.2256 44.9477 52.6298 44.2996V44.2933ZM98.3073 44.2933C102.68 44.9414 106.895 45.7404 110.928 46.7282C109.796 50.7045 108.38 54.7941 106.776 58.89C105.518 56.4362 104.196 53.9636 102.749 51.5036C101.334 49.0372 99.8236 46.6338 98.3136 44.2933H98.3073ZM117.579 48.5402C120.624 49.484 123.518 50.5347 126.23 51.6735C137.127 56.3293 144.174 62.4196 144.174 67.2516C144.142 72.0836 137.095 78.1991 126.198 82.8235C123.556 83.956 120.662 84.9752 117.673 85.9253C115.911 79.8979 113.609 73.6188 110.752 67.1761C113.583 60.7775 115.848 54.5299 117.579 48.5276V48.5402ZM33.3018 48.5654C35.0509 54.6054 37.3599 60.8782 40.2226 67.3145C37.3914 73.7132 35.1138 79.9608 33.3899 85.963C30.3447 85.0193 27.4505 83.9623 24.7703 82.8172C13.8731 78.1802 6.82646 72.0836 6.82646 67.2516C6.82646 62.4196 13.8731 56.2915 24.7703 51.6735C27.4128 50.541 30.307 49.5217 33.3018 48.5654ZM106.776 75.4937C108.443 79.6273 109.859 83.7484 111.029 87.7499C107.002 88.7377 102.749 89.5745 98.345 90.2036C99.855 87.8442 101.365 85.4094 102.781 82.9179C104.196 80.4641 105.518 77.96 106.782 75.4937H106.776ZM44.2052 75.6195C45.4636 78.0859 46.7848 80.5459 48.2319 83.0123C49.679 85.466 51.1575 87.8694 52.6675 90.2036C48.2948 89.5619 44.0794 88.7565 40.0465 87.775C41.179 83.8113 42.6009 79.7091 44.199 75.6132L44.2052 75.6195ZM112.747 94.4127C113.451 97.5145 114.005 100.503 114.345 103.366C115.792 115.119 114.005 124.254 109.852 126.695C108.928 127.262 107.726 127.501 106.31 127.501C99.9431 127.501 90.493 122.423 80.4515 113.156C84.7676 108.626 89.0711 103.492 93.1607 97.8039C100.126 97.0615 106.713 95.9165 112.747 94.4065V94.4127ZM38.3162 94.4757C44.3562 95.9479 50.9373 97.0867 57.8645 97.8228C62.017 103.517 66.3267 108.689 70.668 113.212C60.6328 122.543 51.2142 127.652 44.8092 127.652C43.4251 127.62 42.2548 127.337 41.33 126.821C37.1397 124.43 35.3214 115.282 36.737 103.523C37.0768 100.629 37.6305 97.5837 38.31 94.4757H38.3162ZM67.0062 98.5023C69.7746 98.6282 72.6058 98.7162 75.4685 98.7162C78.3627 98.7162 81.2254 98.6533 84.0252 98.5023C81.2569 102.101 78.3942 105.392 75.5629 108.349C72.7002 105.392 69.8375 102.101 67.0062 98.5023Z" fill="#57C6F4"/>
</svg>
