<svg width="364" height="98" viewBox="0 0 364 98" fill="none" xmlns="http://www.w3.org/2000/svg">
<path d="M0.227273 95V1.90909H33.4091C40.6212 1.90909 46.6061 3.15151 51.3636 5.63636C56.1515 8.12121 59.7273 11.5606 62.0909 15.9545C64.4545 20.3182 65.6364 25.3636 65.6364 31.0909C65.6364 36.7879 64.4394 41.803 62.0455 46.1364C59.6818 50.4394 56.1061 53.7879 51.3182 56.1818C46.5606 58.5758 40.5758 59.7727 33.3636 59.7727H8.22727V47.6818H32.0909C36.6364 47.6818 40.3333 47.0303 43.1818 45.7273C46.0606 44.4242 48.1667 42.5303 49.5 40.0455C50.8333 37.5606 51.5 34.5758 51.5 31.0909C51.5 27.5758 50.8182 24.5303 49.4545 21.9545C48.1212 19.3788 46.0152 17.4091 43.1364 16.0455C40.2879 14.6515 36.5455 13.9545 31.9091 13.9545H14.2727V95H0.227273ZM46.1818 53L69.1818 95H53.1818L30.6364 53H46.1818ZM110.852 96.4091C103.973 96.4091 98.0492 94.9394 93.0795 92C88.1402 89.0303 84.322 84.8636 81.625 79.5C78.9583 74.1061 77.625 67.7879 77.625 60.5455C77.625 53.3939 78.9583 47.0909 81.625 41.6364C84.322 36.1818 88.0795 31.9242 92.8977 28.8636C97.7462 25.803 103.413 24.2727 109.898 24.2727C113.837 24.2727 117.655 24.9242 121.352 26.2273C125.049 27.5303 128.367 29.5758 131.307 32.3636C134.246 35.1515 136.564 38.7727 138.261 43.2273C139.958 47.6515 140.807 53.0303 140.807 59.3636V64.1818H85.3068V54H127.489C127.489 50.4242 126.761 47.2576 125.307 44.5C123.852 41.7121 121.807 39.5151 119.17 37.9091C116.564 36.303 113.504 35.5 109.989 35.5C106.17 35.5 102.837 36.4394 99.9886 38.3182C97.1705 40.1667 94.9886 42.5909 93.4432 45.5909C91.928 48.5606 91.1705 51.7879 91.1705 55.2727V63.2273C91.1705 67.8939 91.9886 71.8636 93.625 75.1364C95.2917 78.4091 97.6098 80.9091 100.58 82.6364C103.549 84.3333 107.019 85.1818 110.989 85.1818C113.564 85.1818 115.913 84.8182 118.034 84.0909C120.155 83.3333 121.989 82.2121 123.534 80.7273C125.08 79.2424 126.261 77.4091 127.08 75.2273L139.943 77.5455C138.913 81.3333 137.064 84.6515 134.398 87.5C131.761 90.3182 128.443 92.5152 124.443 94.0909C120.473 95.6364 115.943 96.4091 110.852 96.4091ZM182.023 96.3636C176.386 96.3636 171.356 94.9242 166.932 92.0455C162.538 89.1364 159.083 85 156.568 79.6364C154.083 74.2424 152.841 67.7727 152.841 60.2273C152.841 52.6818 154.098 46.2273 156.614 40.8636C159.159 35.5 162.644 31.3939 167.068 28.5455C171.492 25.697 176.508 24.2727 182.114 24.2727C186.447 24.2727 189.932 25 192.568 26.4545C195.235 27.8788 197.295 29.5455 198.75 31.4545C200.235 33.3636 201.386 35.0455 202.205 36.5H203.023V1.90909H216.614V95H203.341V84.1364H202.205C201.386 85.6212 200.205 87.3182 198.659 89.2273C197.144 91.1364 195.053 92.803 192.386 94.2273C189.72 95.6515 186.265 96.3636 182.023 96.3636ZM185.023 84.7727C188.932 84.7727 192.235 83.7424 194.932 81.6818C197.659 79.5909 199.72 76.697 201.114 73C202.538 69.303 203.25 65 203.25 60.0909C203.25 55.2424 202.553 51 201.159 47.3636C199.765 43.7273 197.72 40.8939 195.023 38.8636C192.326 36.8333 188.992 35.8182 185.023 35.8182C180.932 35.8182 177.523 36.8788 174.795 39C172.068 41.1212 170.008 44.0151 168.614 47.6818C167.25 51.3485 166.568 55.4848 166.568 60.0909C166.568 64.7576 167.265 68.9545 168.659 72.6818C170.053 76.4091 172.114 79.3636 174.841 81.5455C177.598 83.697 180.992 84.7727 185.023 84.7727Z" fill="#ACC6F3"/>
<path d="M270.92 97.0455C263.102 97.0152 256.375 95.0909 250.739 91.2727C245.133 87.4545 240.814 81.9242 237.784 74.6818C234.784 67.4394 233.299 58.7273 233.33 48.5455C233.33 38.3939 234.83 29.7424 237.83 22.5909C240.86 15.4394 245.178 10 250.784 6.27273C256.42 2.51515 263.133 0.63636 270.92 0.63636C278.708 0.63636 285.405 2.51515 291.011 6.27273C296.648 10.0303 300.981 15.4848 304.011 22.6364C307.042 29.7576 308.542 38.3939 308.511 48.5455C308.511 58.7576 306.996 67.4848 303.966 74.7273C300.966 81.9697 296.663 87.5 291.057 91.3182C285.451 95.1364 278.739 97.0455 270.92 97.0455ZM270.92 80.7273C276.254 80.7273 280.511 78.0455 283.693 72.6818C286.875 67.3182 288.451 59.2727 288.42 48.5455C288.42 41.4848 287.693 35.6061 286.239 30.9091C284.814 26.2121 282.784 22.6818 280.148 20.3182C277.542 17.9545 274.466 16.7727 270.92 16.7727C265.617 16.7727 261.375 19.4242 258.193 24.7273C255.011 30.0303 253.405 37.9697 253.375 48.5455C253.375 55.697 254.087 61.6667 255.511 66.4545C256.966 71.2121 259.011 74.7879 261.648 77.1818C264.284 79.5455 267.375 80.7273 270.92 80.7273ZM363.045 1.90909V95H343.364V20.5909H342.818L321.5 33.9545V16.5L344.545 1.90909H363.045Z" fill="#0267FF"/>
</svg>
