<svg width="92" height="87" viewBox="0 0 92 87" fill="none" xmlns="http://www.w3.org/2000/svg">
<path d="M63.0705 60.2268C66.3693 59.9425 68.9211 57.0418 68.758 53.5762C68.5798 50.1107 65.7399 47.3276 62.2781 47.3276H62.0468C60.3288 47.3888 58.7055 48.1298 57.5338 49.3876C56.362 50.6454 55.7377 52.3171 55.7981 54.035C55.9119 55.8512 56.655 57.33 57.6712 58.4068C53.6975 66.1342 47.7332 71.8142 38.6939 76.5879C32.6159 79.7653 26.1966 80.9635 19.9479 80.1141C14.723 79.3747 10.6356 77.0429 8.13307 73.2929C4.3869 67.6092 4.04565 61.4781 7.1662 55.3432C9.4412 50.9069 12.8499 47.6726 15.1249 46.0801C14.4381 44.1758 13.9056 42.2193 13.5324 40.2296C-3.29122 52.2795 -1.57739 68.7505 3.53378 76.5348C7.34061 82.2147 15.1249 85.8471 23.6448 85.8471C25.9198 85.8471 28.3085 85.6803 30.6328 85.1115C45.4089 82.2716 56.5982 73.4105 63.0175 60.3444L63.0705 60.2268ZM83.3484 46.0232C74.5517 35.6796 61.5918 29.9997 46.8194 29.9997H44.8857C43.9264 27.8991 41.7121 26.591 39.2058 26.591H39.0352C35.4596 26.591 32.6727 29.6622 32.7903 33.2377C32.904 36.6427 35.8009 39.4864 39.2664 39.4864H39.547C40.7762 39.4389 41.9658 39.0386 42.9737 38.3333C43.9815 37.628 44.7651 36.6475 45.2307 35.509H47.3351C56.0901 35.509 64.3787 38.0645 71.9355 43.062C77.7253 46.8726 81.8772 51.87 84.2091 57.8381C86.249 62.7217 86.139 67.4955 84.0384 71.4767C80.7966 77.7216 75.3404 81.0203 68.1286 81.0203C63.5824 81.0203 59.1537 79.5985 56.8787 78.5785C55.5137 79.7084 53.2387 81.5853 51.5932 82.7228C56.5906 84.9902 61.6487 86.2983 66.5323 86.2983C77.6116 86.2983 85.8471 80.0534 88.9752 74.0285C92.3801 67.2111 92.0995 55.7375 83.4015 45.9095L83.3484 46.0232ZM24.6079 62.2667C24.7216 65.6755 27.6147 68.5154 31.084 68.5154H31.3115C32.1653 68.4961 33.0067 68.3062 33.7859 67.9568C34.5652 67.6073 35.2666 67.1055 35.8489 66.4808C36.4313 65.856 36.8827 65.1211 37.1766 64.3192C37.4704 63.5174 37.6009 62.6648 37.5602 61.8117C37.5602 58.3992 34.6065 55.5669 31.1409 55.5669H30.9134C30.6859 55.5669 30.3447 55.5669 30.0565 55.6768C25.3434 47.7219 23.3528 39.1945 24.096 29.9997C24.551 23.0685 26.826 17.0435 30.9096 12.0461C34.3221 7.78429 40.7414 5.67612 45.117 5.56996C57.3868 5.33867 62.5018 20.6267 62.8961 26.7047L68.576 28.411C67.2679 9.77113 55.6844 0 44.6051 0C34.2008 0 24.6079 7.55679 20.7404 18.636C15.4586 33.4046 18.9242 47.612 25.4041 58.9756C24.8354 59.715 24.4941 61.0193 24.6079 62.2667V62.2667Z" fill="#57C6F4"/>
</svg>
