<svg width="123" height="123" viewBox="0 0 123 123" fill="none" xmlns="http://www.w3.org/2000/svg">
<path d="M61.5 0C95.4634 0 123 27.5366 123 61.5C123 95.4634 95.4634 123 61.5 123C27.5366 123 0 95.4634 0 61.5C0 27.5366 27.5366 0 61.5 0ZM49.2769 81.9898C50.1737 85.2954 50.0764 88.3858 49.1539 91.1738L48.8207 92.0962C48.6977 92.4089 48.5542 92.7112 48.421 92.9982C47.7035 94.4845 46.7502 95.8682 45.5766 97.1495C41.9994 101.039 37.0076 102.515 34.8654 101.275C32.5591 99.9324 33.7071 94.4332 37.8584 90.0514C42.3222 85.3466 48.7234 82.3178 48.7234 82.3178V82.3024L49.2769 81.9898ZM100.071 26.3271C97.293 15.3955 79.1761 11.8029 62.033 17.8965C51.8394 21.5199 40.795 27.2137 32.8564 34.6399C23.411 43.46 21.9094 51.1475 22.5295 54.3609C24.7179 65.6923 40.2466 73.103 46.6324 78.6021V78.6329C44.7515 79.5554 30.9704 86.469 27.7416 93.6235C24.2822 101.157 28.2797 106.544 30.8935 107.23C38.9654 109.465 47.2679 105.385 51.7266 98.7793C56.0316 92.3166 55.6524 84.0141 53.7971 79.9397C56.3391 79.2479 59.3321 78.9404 63.1759 79.4068C73.9435 80.6368 76.096 87.4017 75.6296 90.1692C75.1684 92.9316 72.9493 94.546 72.1754 95.0072C71.4066 95.4736 71.176 95.6222 71.2478 95.9349C71.3246 96.3961 71.7141 96.3961 72.324 96.3193C73.1696 96.1655 77.941 94.013 78.1716 88.7804C78.4023 82.1691 72.0934 74.7942 60.8748 74.9429C56.2623 75.0249 53.3359 75.4092 51.2654 76.2549C51.1116 76.0242 50.9527 75.8705 50.7272 75.7168C43.8085 68.2599 30.9704 63.0324 31.5085 53.1155C31.6622 49.5024 32.9691 39.975 56.1085 28.4438C75.0966 18.983 90.2461 21.6019 92.8599 27.3675C96.6165 35.588 84.7829 50.8912 65.026 53.1155C57.4922 53.9611 53.5716 51.045 52.5671 49.9636C51.496 48.8105 51.3423 48.7336 50.9579 48.9694C50.3429 49.2769 50.7273 50.2762 50.9579 50.8912C51.5729 52.4287 53.956 55.1194 58.1124 56.5031C61.7204 57.6562 70.5661 58.343 81.1749 54.1969C93.0854 49.5895 102.387 36.7462 99.6966 25.9837L100.071 26.3271Z" fill="#57C6F4"/>
</svg>
